<svg viewBox="0 0 600 400" xmlns="http://www.w3.org/2000/svg">
<g transform="translate(50, 370)">
<g>
<rect fill="burlywood" height="239.70962982832617" stroke="black" width="10" x="0" y="-239.70962982832617"/>
<rect fill="burlywood" height="156.01193669527896" stroke="black" width="10" x="10" y="-156.01193669527896"/>
<rect fill="burlywood" height="38.18736587982833" stroke="black" width="10" x="20" y="-38.18736587982833"/>
<rect fill="burlywood" height="350" stroke="black" width="10" x="30" y="-350"/>
<rect fill="burlywood" height="11.669796137339056" stroke="black" width="10" x="40" y="-11.669796137339056"/>
<rect fill="burlywood" height="11.857564377682403" stroke="black" width="10" x="50" y="-11.857564377682403"/>
<rect fill="burlywood" height="15.622317596566523" stroke="black" width="10" x="60" y="-15.622317596566523"/>
<rect fill="burlywood" height="16.636266094420602" stroke="black" width="10" x="70" y="-16.636266094420602"/>
<rect fill="burlywood" height="15.556598712446352" stroke="black" width="9.999999999999986" x="80" y="-15.556598712446352"/>
<rect fill="burlywood" height="15.857027896995708" stroke="black" width="10.000000000000014" x="89.99999999999999" y="-15.857027896995708"/>
<rect fill="burlywood" height="13.017033261802576" stroke="black" width="10" x="100" y="-13.017033261802576"/>
<rect fill="burlywood" height="14.134254291845494" stroke="black" width="10" x="110" y="-14.134254291845494"/>
<rect fill="burlywood" height="14.965128755364807" stroke="black" width="10" x="120" y="-14.965128755364807"/>
<rect fill="burlywood" height="13.289297210300429" stroke="black" width="10" x="130" y="-13.289297210300429"/>
<rect fill="burlywood" height="16.288894849785407" stroke="black" width="9.999999999999972" x="140" y="-16.288894849785407"/>
<rect fill="burlywood" height="22.058074034334766" stroke="black" width="10.000000000000028" x="149.99999999999997" y="-22.058074034334766"/>
<rect fill="burlywood" height="16.720761802575108" stroke="black" width="10" x="160" y="-16.720761802575108"/>
<rect fill="burlywood" height="12.359844420600858" stroke="black" width="9.999999999999972" x="170" y="-12.359844420600858"/>
<rect fill="burlywood" height="14.617757510729614" stroke="black" width="10.000000000000028" x="179.99999999999997" y="-14.617757510729614"/>
<rect fill="burlywood" height="11.862258583690988" stroke="black" width="10" x="190" y="-11.862258583690988"/>
<rect fill="burlywood" height="12.073497854077253" stroke="black" width="10" x="200" y="-12.073497854077253"/>
<rect fill="burlywood" height="10.533798283261802" stroke="black" width="10" x="210" y="-10.533798283261802"/>
<rect fill="burlywood" height="11.669796137339056" stroke="black" width="10" x="220" y="-11.669796137339056"/>
<rect fill="burlywood" height="12.613331545064378" stroke="black" width="10" x="230" y="-12.613331545064378"/>
<rect fill="burlywood" height="12.528835836909872" stroke="black" width="10" x="240" y="-12.528835836909872"/>
<rect fill="burlywood" height="11.683878755364807" stroke="black" width="10" x="250" y="-11.683878755364807"/>
<rect fill="burlywood" height="11.092408798283262" stroke="black" width="10" x="260" y="-11.092408798283262"/>
<rect fill="burlywood" height="11.477333690987125" stroke="black" width="10" x="270" y="-11.477333690987125"/>
<rect fill="burlywood" height="11.172210300429185" stroke="black" width="10" x="280" y="-11.172210300429185"/>
<rect fill="burlywood" height="10.637070815450643" stroke="black" width="9.999999999999943" x="290" y="-10.637070815450643"/>
<rect fill="burlywood" height="11.092408798283262" stroke="black" width="10.000000000000057" x="299.99999999999994" y="-11.092408798283262"/>
<rect fill="burlywood" height="11.087714592274677" stroke="black" width="10" x="310" y="-11.087714592274677"/>
<rect fill="burlywood" height="10.32725321888412" stroke="black" width="10" x="320" y="-10.32725321888412"/>
<rect fill="burlywood" height="10.979747854077253" stroke="black" width="10" x="330" y="-10.979747854077253"/>
<rect fill="burlywood" height="10.702789699570815" stroke="black" width="10" x="340" y="-10.702789699570815"/>
<rect fill="burlywood" height="9.93293991416309" stroke="black" width="9.999999999999943" x="350" y="-9.93293991416309"/>
<rect fill="burlywood" height="12.580472103004292" stroke="black" width="10.000000000000057" x="359.99999999999994" y="-12.580472103004292"/>
<rect fill="burlywood" height="10.895252145922747" stroke="black" width="10" x="370" y="-10.895252145922747"/>
<rect fill="burlywood" height="12.139216738197424" stroke="black" width="10.000000000000057" x="380" y="-12.139216738197424"/>
<rect fill="burlywood" height="11.34589592274678" stroke="black" width="9.999999999999943" x="390.00000000000006" y="-11.34589592274678"/>
<rect fill="burlywood" height="12.153299356223176" stroke="black" width="10" x="400" y="-12.153299356223176"/>
<rect fill="burlywood" height="11.289565450643776" stroke="black" width="10" x="410" y="-11.289565450643776"/>
<rect fill="burlywood" height="9.80619635193133" stroke="black" width="10" x="420" y="-9.80619635193133"/>
<rect fill="burlywood" height="10.233369098712446" stroke="black" width="10" x="430" y="-10.233369098712446"/>
<rect fill="burlywood" height="10.604211373390559" stroke="black" width="10.000000000000057" x="440" y="-10.604211373390559"/>
<rect fill="burlywood" height="10.52910407725322" stroke="black" width="9.999999999999943" x="450.00000000000006" y="-10.52910407725322"/>
<rect fill="burlywood" height="9.524543991416309" stroke="black" width="10" x="460" y="-9.524543991416309"/>
<rect fill="burlywood" height="10.14887339055794" stroke="black" width="10" x="470" y="-10.14887339055794"/>
<rect fill="burlywood" height="9.684146995708154" stroke="black" width="10" x="480" y="-9.684146995708154"/>
<rect fill="burlywood" height="12.331679184549357" stroke="black" width="10" x="490" y="-12.331679184549357"/>
</g>
<g>
<g>
<line stroke="black" stroke-width="1" x1="99.706457925636" x2="99.706457925636" y1="0" y2="10"/>
<line stroke="black" stroke-width="1" x1="199.90215264187867" x2="199.90215264187867" y1="0" y2="10"/>
<line stroke="black" stroke-width="1" x1="300.0978473581214" x2="300.0978473581214" y1="0" y2="10"/>
<line stroke="black" stroke-width="1" x1="400.293542074364" x2="400.293542074364" y1="0" y2="10"/>
</g>
<line stroke="black" stroke-width="1" x1="0" x2="500" y1="0" y2="0"/>
<g>
<text font-size="12" text-anchor="middle" x="99.706457925636" y="20">
0.2
</text>
<text font-size="12" text-anchor="middle" x="199.90215264187867" y="20">
0.4
</text>
<text font-size="12" text-anchor="middle" x="300.0978473581214" y="20">
0.6000000000000001
</text>
<text font-size="12" text-anchor="middle" x="400.293542074364" y="20">
0.8
</text>
</g>
</g>
<g>
<g>
<line stroke="black" stroke-width="1" x1="0" x2="-10" y1="0" y2="0"/>
<line stroke="black" stroke-width="1" x1="0" x2="-10" y1="-93.88412017167381" y2="-93.88412017167381"/>
<line stroke="black" stroke-width="1" x1="0" x2="-10" y1="-187.76824034334763" y2="-187.76824034334763"/>
<line stroke="black" stroke-width="1" x1="0" x2="-10" y1="-281.6523605150215" y2="-281.6523605150215"/>
</g>
<line stroke="black" stroke-0="1" x1="0" x2="0" y1="0" y2="-350"/>
<g>
<text dominant-baseline="middle" font-size="12" text-anchor="end" x="-15" y="0">
0
</text>
<text dominant-baseline="middle" font-size="12" text-anchor="end" x="-15" y="-93.88412017167381">
20000
</text>
<text dominant-baseline="middle" font-size="12" text-anchor="end" x="-15" y="-187.76824034334763">
40000
</text>
<text dominant-baseline="middle" font-size="12" text-anchor="end" x="-15" y="-281.6523605150215">
60000
</text>
</g>
</g>
</g>
</svg>