<svg viewBox="0 0 600 400" xmlns="http://www.w3.org/2000/svg">
<g transform="translate(50, 370)">
<g>
<rect fill="burlywood" height="350" stroke="black" width="5" x="0" y="-350"/>
<rect fill="burlywood" height="0" stroke="black" width="5" x="5" y="0"/>
<rect fill="burlywood" height="0" stroke="black" width="4.999999999999998" x="10" y="0"/>
<rect fill="burlywood" height="0" stroke="black" width="5.000000000000002" x="14.999999999999998" y="0"/>
<rect fill="burlywood" height="0" stroke="black" width="5.0000000000000036" x="20" y="0"/>
<rect fill="burlywood" height="0" stroke="black" width="4.999999999999993" x="25.000000000000004" y="0"/>
<rect fill="burlywood" height="0" stroke="black" width="5.000000000000011" x="29.999999999999996" y="0"/>
<rect fill="burlywood" height="0" stroke="black" width="4.999999999999993" x="35.00000000000001" y="0"/>
<rect fill="burlywood" height="0" stroke="black" width="5" x="40" y="0"/>
<rect fill="burlywood" height="0" stroke="black" width="5.000000000000007" x="45" y="0"/>
<rect fill="burlywood" height="0" stroke="black" width="4.999999999999993" x="50.00000000000001" y="0"/>
<rect fill="burlywood" height="0" stroke="black" width="4.999999999999993" x="55" y="0"/>
<rect fill="burlywood" height="0" stroke="black" width="5.000000000000007" x="59.99999999999999" y="0"/>
<rect fill="burlywood" height="0" stroke="black" width="5.000000000000014" x="65" y="0"/>
<rect fill="burlywood" height="0" stroke="black" width="4.999999999999986" x="70.00000000000001" y="0"/>
<rect fill="burlywood" height="0" stroke="black" width="5" x="75" y="0"/>
<rect fill="burlywood" height="0" stroke="black" width="5.000000000000014" x="80" y="0"/>
<rect fill="burlywood" height="0" stroke="black" width="4.999999999999986" x="85.00000000000001" y="0"/>
<rect fill="burlywood" height="0" stroke="black" width="5" x="90" y="0"/>
<rect fill="burlywood" height="0" stroke="black" width="5.000000000000014" x="95" y="0"/>
<rect fill="burlywood" height="0" stroke="black" width="4.999999999999972" x="100.00000000000001" y="0"/>
<rect fill="burlywood" height="0" stroke="black" width="5.000000000000014" x="104.99999999999999" y="0"/>
<rect fill="burlywood" height="0" stroke="black" width="5.000000000000014" x="110" y="0"/>
<rect fill="burlywood" height="0" stroke="black" width="4.999999999999972" x="115.00000000000001" y="0"/>
<rect fill="burlywood" height="0" stroke="black" width="5.000000000000014" x="119.99999999999999" y="0"/>
<rect fill="burlywood" height="0" stroke="black" width="5" x="125" y="0"/>
<rect fill="burlywood" height="0" stroke="black" width="5.000000000000028" x="130" y="0"/>
<rect fill="burlywood" height="0" stroke="black" width="5" x="135.00000000000003" y="0"/>
<rect fill="burlywood" height="0" stroke="black" width="4.999999999999943" x="140.00000000000003" y="0"/>
<rect fill="burlywood" height="0" stroke="black" width="5.000000000000028" x="144.99999999999997" y="0"/>
<rect fill="burlywood" height="0" stroke="black" width="5" x="150" y="0"/>
<rect fill="burlywood" height="0" stroke="black" width="5" x="155" y="0"/>
<rect fill="burlywood" height="0" stroke="black" width="5.000000000000028" x="160" y="0"/>
<rect fill="burlywood" height="0" stroke="black" width="5" x="165.00000000000003" y="0"/>
<rect fill="burlywood" height="0" stroke="black" width="4.999999999999943" x="170.00000000000003" y="0"/>
<rect fill="burlywood" height="0" stroke="black" width="5.000000000000028" x="174.99999999999997" y="0"/>
<rect fill="burlywood" height="0" stroke="black" width="5" x="180" y="0"/>
<rect fill="burlywood" height="0" stroke="black" width="5" x="185" y="0"/>
<rect fill="burlywood" height="0" stroke="black" width="5" x="190" y="0"/>
<rect fill="burlywood" height="0" stroke="black" width="5.000000000000028" x="195" y="0"/>
<rect fill="burlywood" height="0" stroke="black" width="4.999999999999943" x="200.00000000000003" y="0"/>
<rect fill="burlywood" height="0" stroke="black" width="5" x="204.99999999999997" y="0"/>
<rect fill="burlywood" height="0" stroke="black" width="5.000000000000028" x="209.99999999999997" y="0"/>
<rect fill="burlywood" height="0" stroke="black" width="5" x="215" y="0"/>
<rect fill="burlywood" height="0" stroke="black" width="5" x="220" y="0"/>
<rect fill="burlywood" height="0" stroke="black" width="5.000000000000028" x="225" y="0"/>
<rect fill="burlywood" height="0" stroke="black" width="4.999999999999943" x="230.00000000000003" y="0"/>
<rect fill="burlywood" height="0" stroke="black" width="5" x="234.99999999999997" y="0"/>
<rect fill="burlywood" height="0" stroke="black" width="5.000000000000028" x="239.99999999999997" y="0"/>
<rect fill="burlywood" height="0" stroke="black" width="5" x="245" y="0"/>
<rect fill="burlywood" height="0" stroke="black" width="5" x="250" y="0"/>
<rect fill="burlywood" height="0" stroke="black" width="5" x="255" y="0"/>
<rect fill="burlywood" height="0" stroke="black" width="5" x="260" y="0"/>
<rect fill="burlywood" height="0" stroke="black" width="5.000000000000057" x="265" y="0"/>
<rect fill="burlywood" height="0" stroke="black" width="5" x="270.00000000000006" y="0"/>
<rect fill="burlywood" height="0" stroke="black" width="5" x="275.00000000000006" y="0"/>
<rect fill="burlywood" height="0" stroke="black" width="4.999999999999886" x="280.00000000000006" y="0"/>
<rect fill="burlywood" height="0" stroke="black" width="5" x="284.99999999999994" y="0"/>
<rect fill="burlywood" height="0" stroke="black" width="5" x="289.99999999999994" y="0"/>
<rect fill="burlywood" height="0" stroke="black" width="5.000000000000057" x="294.99999999999994" y="0"/>
<rect fill="burlywood" height="0" stroke="black" width="5" x="300" y="0"/>
<rect fill="burlywood" height="0" stroke="black" width="5" x="305" y="0"/>
<rect fill="burlywood" height="0" stroke="black" width="5" x="310" y="0"/>
<rect fill="burlywood" height="0" stroke="black" width="5" x="315" y="0"/>
<rect fill="burlywood" height="0" stroke="black" width="5" x="320" y="0"/>
<rect fill="burlywood" height="0" stroke="black" width="5.000000000000057" x="325" y="0"/>
<rect fill="burlywood" height="0" stroke="black" width="5" x="330.00000000000006" y="0"/>
<rect fill="burlywood" height="0" stroke="black" width="5" x="335.00000000000006" y="0"/>
<rect fill="burlywood" height="0" stroke="black" width="4.999999999999886" x="340.00000000000006" y="0"/>
<rect fill="burlywood" height="0" stroke="black" width="5" x="344.99999999999994" y="0"/>
<rect fill="burlywood" height="0" stroke="black" width="5" x="349.99999999999994" y="0"/>
<rect fill="burlywood" height="0" stroke="black" width="5.000000000000057" x="354.99999999999994" y="0"/>
<rect fill="burlywood" height="0" stroke="black" width="5" x="360" y="0"/>
<rect fill="burlywood" height="0" stroke="black" width="5" x="365" y="0"/>
<rect fill="burlywood" height="0" stroke="black" width="5" x="370" y="0"/>
<rect fill="burlywood" height="0" stroke="black" width="5" x="375" y="0"/>
<rect fill="burlywood" height="0" stroke="black" width="5" x="380" y="0"/>
<rect fill="burlywood" height="0" stroke="black" width="5" x="385" y="0"/>
<rect fill="burlywood" height="0" stroke="black" width="5.000000000000057" x="390" y="0"/>
<rect fill="burlywood" height="0" stroke="black" width="5" x="395.00000000000006" y="0"/>
<rect fill="burlywood" height="0" stroke="black" width="5" x="400.00000000000006" y="0"/>
<rect fill="burlywood" height="0" stroke="black" width="4.999999999999886" x="405.00000000000006" y="0"/>
<rect fill="burlywood" height="0" stroke="black" width="5" x="409.99999999999994" y="0"/>
<rect fill="burlywood" height="0" stroke="black" width="5" x="414.99999999999994" y="0"/>
<rect fill="burlywood" height="0" stroke="black" width="5.000000000000057" x="419.99999999999994" y="0"/>
<rect fill="burlywood" height="0" stroke="black" width="5" x="425" y="0"/>
<rect fill="burlywood" height="0" stroke="black" width="5" x="430" y="0"/>
<rect fill="burlywood" height="0" stroke="black" width="5" x="435" y="0"/>
<rect fill="burlywood" height="0" stroke="black" width="5" x="440" y="0"/>
<rect fill="burlywood" height="0" stroke="black" width="5" x="445" y="0"/>
<rect fill="burlywood" height="0" stroke="black" width="5.000000000000057" x="450" y="0"/>
<rect fill="burlywood" height="0" stroke="black" width="5" x="455.00000000000006" y="0"/>
<rect fill="burlywood" height="0" stroke="black" width="5" x="460.00000000000006" y="0"/>
<rect fill="burlywood" height="0" stroke="black" width="4.999999999999886" x="465.00000000000006" y="0"/>
<rect fill="burlywood" height="0" stroke="black" width="5" x="469.99999999999994" y="0"/>
<rect fill="burlywood" height="0" stroke="black" width="5" x="474.99999999999994" y="0"/>
<rect fill="burlywood" height="0" stroke="black" width="5.000000000000057" x="479.99999999999994" y="0"/>
<rect fill="burlywood" height="0" stroke="black" width="5" x="485" y="0"/>
<rect fill="burlywood" height="0" stroke="black" width="5" x="490" y="0"/>
<rect fill="burlywood" height="0.0004731897450318457" stroke="black" width="5" x="495" y="-0.0004731897450318457"/>
</g>
<g>
<g>
<line stroke="black" stroke-width="1" x1="0" x2="0" y1="0" y2="10"/>
<line stroke="black" stroke-width="1" x1="142.10855772752495" x2="142.10855772752495" y1="0" y2="10"/>
<line stroke="black" stroke-width="1" x1="284.2171154550499" x2="284.2171154550499" y1="0" y2="10"/>
<line stroke="black" stroke-width="1" x1="426.32567318257486" x2="426.32567318257486" y1="0" y2="10"/>
</g>
<line stroke="black" stroke-width="1" x1="0" x2="500" y1="0" y2="0"/>
<g>
<text font-size="12" text-anchor="middle" x="0" y="20">
0
</text>
<text font-size="12" text-anchor="middle" x="142.10855772752495" y="20">
40000000000000
</text>
<text font-size="12" text-anchor="middle" x="284.2171154550499" y="20">
80000000000000
</text>
<text font-size="12" text-anchor="middle" x="426.32567318257486" y="20">
120000000000000
</text>
</g>
</g>
<g>
<g>
<line stroke="black" stroke-width="1" x1="0" x2="-10" y1="0" y2="0"/>
<line stroke="black" stroke-width="1" x1="0" x2="-10" y1="-94.63794900636914" y2="-94.63794900636914"/>
<line stroke="black" stroke-width="1" x1="0" x2="-10" y1="-189.27589801273828" y2="-189.27589801273828"/>
<line stroke="black" stroke-width="1" x1="0" x2="-10" y1="-283.9138470191074" y2="-283.9138470191074"/>
</g>
<line stroke="black" stroke-0="1" x1="0" x2="0" y1="0" y2="-350"/>
<g>
<text dominant-baseline="middle" font-size="12" text-anchor="end" x="-15" y="0">
0
</text>
<text dominant-baseline="middle" font-size="12" text-anchor="end" x="-15" y="-94.63794900636914">
200000
</text>
<text dominant-baseline="middle" font-size="12" text-anchor="end" x="-15" y="-189.27589801273828">
400000
</text>
<text dominant-baseline="middle" font-size="12" text-anchor="end" x="-15" y="-283.9138470191074">
600000
</text>
</g>
</g>
</g>
</svg>